<svg width="24" height="22" viewBox="0 0 24 22" fill="none" xmlns="http://www.w3.org/2000/svg">
<path fill-rule="evenodd" clip-rule="evenodd" d="M11.9863 3.46752C10.332 1.82009 8.60575 1.00238 6.94633 0.878949C5.0709 0.741807 3.4149 1.50295 2.22175 2.70638C-0.123388 5.07209 -0.839959 9.34924 2.09147 12.2927C2.09988 12.3008 2.10845 12.3088 2.11718 12.3167L11.4052 20.9087C11.5637 21.0557 11.7719 21.1373 11.988 21.1373C12.2042 21.1373 12.4124 21.0557 12.5709 20.9087L21.8589 12.3167L21.8778 12.2978C24.8503 9.36638 24.132 5.08923 21.7749 2.72352C20.5783 1.52009 18.9172 0.757235 17.0383 0.892664C15.3755 1.01266 13.6423 1.82352 11.9863 3.46752ZM11.4035 6.86523C11.3235 6.67913 11.1924 6.51951 11.0254 6.40488C10.8584 6.29025 10.6623 6.22531 10.4599 6.2176C10.2575 6.20988 10.057 6.2597 9.88178 6.36128C9.70653 6.46286 9.56366 6.61204 9.46975 6.79152L8.00233 9.59438H6.02575C5.74159 9.59438 5.46907 9.70726 5.26814 9.90819C5.06721 10.1091 4.95433 10.3816 4.95433 10.6658C4.95433 10.95 5.06721 11.2225 5.26814 11.4234C5.46907 11.6244 5.74159 11.7372 6.02575 11.7372H8.65033C9.04975 11.7372 9.4149 11.5144 9.60004 11.1629L10.3252 9.77952L12.1132 13.9281C12.1859 14.0977 12.3013 14.2456 12.448 14.3575C12.5947 14.4694 12.7678 14.5416 12.9506 14.5669C13.1334 14.5923 13.3197 14.57 13.4913 14.5022C13.6629 14.4344 13.8142 14.3235 13.9303 14.1801L15.912 11.7372H17.9726C18.2568 11.7372 18.5293 11.6244 18.7302 11.4234C18.9312 11.2225 19.044 10.95 19.044 10.6658C19.044 10.3816 18.9312 10.1091 18.7302 9.90819C18.5293 9.70726 18.2568 9.59438 17.9726 9.59438H15.4012C15.2416 9.59417 15.084 9.62961 14.9398 9.69812C14.7957 9.76664 14.6686 9.86649 14.568 9.99038L13.38 11.4561L11.4018 6.86695L11.4035 6.86523Z" fill="#F79009"/>
</svg>
