<svg width="25" height="24" viewBox="0 0 25 24" fill="none" xmlns="http://www.w3.org/2000/svg">
<path d="M20.34 6.81994L14.58 2.78994C13.01 1.68994 10.6 1.74994 9.08998 2.91994L4.07998 6.82994C3.07998 7.60994 2.28998 9.20994 2.28998 10.4699V17.3699C2.28998 19.9199 4.35998 21.9999 6.90998 21.9999H17.69C20.24 21.9999 22.31 19.9299 22.31 17.3799V10.5999C22.31 9.24994 21.44 7.58994 20.34 6.81994ZM13.05 17.9999C13.05 18.4099 12.71 18.7499 12.3 18.7499C11.89 18.7499 11.55 18.4099 11.55 17.9999V14.9999C11.55 14.5899 11.89 14.2499 12.3 14.2499C12.71 14.2499 13.05 14.5899 13.05 14.9999V17.9999Z" fill="url(#paint0_linear_893_4484)"/>
<defs>
<linearGradient id="paint0_linear_893_4484" x1="2.28967" y1="21.9998" x2="22.2875" y2="1.97971" gradientUnits="userSpaceOnUse">
<stop/>
<stop offset="1" stop-color="#0BA5EC"/>
</linearGradient>
</defs>
</svg>
